# xmcd CD database file
#
# Track frame offsets:
#	150
#	15740
#	31025
#	45677
#	66805
#	90937
#	108675
#	122930
#	142945
#	158947
#	181027
#	199740
#	222650
#
# Disc length: 3276 seconds
#
# Revision: 1
# Processed by: cddbd v1.5.2PL0 Copyright (c) Steve Scherf et al.
# Submitted via: CDex 1.70beta2
#
DISCID=b00cca0d
DTITLE=Various Artist - 回奏録～ヤマハ年代別コレクション3
DYEAR=1996
DGENRE=フォーク (日本)
TTITLE0=泣かせて今夜は - 因幡晃
TTITLE1=みずいろの雨 - 八神純子
TTITLE2=面影橋 - ＮＳＰ
TTITLE3=燃えろいい女 - ツイスト
TTITLE4=夢想花 - 円広志
TTITLE5=ポーラ・スター - 八神純子
TTITLE6=ファッシネイション - 門あさ美
TTITLE7=愛のナイフ - ＮＳＰ
TTITLE8=身に覚え - ツイスト
TTITLE9=大都会 - クリスタルキング
TTITLE10=パープル タウン - 八神純子
TTITLE11=見上げれば雲か - ＮＳＰ
TTITLE12=明日への旅立ち - クリスタルキング
EXTD=YEAR: 1996
EXTT0=
EXTT1=
EXTT2=
EXTT3=
EXTT4=
EXTT5=
EXTT6=
EXTT7=
EXTT8=
EXTT9=
EXTT10=
EXTT11=
EXTT12=
PLAYORDER=
